<?xml version="1.0" standalone="no"?>
<!DOCTYPE svg PUBLIC "-//W3C//DTD SVG 20010904//EN"
 "http://www.w3.org/TR/2001/REC-SVG-20010904/DTD/svg10.dtd">
<svg version="1.0" xmlns="http://www.w3.org/2000/svg"
 width="300.000000pt" height="280.000000pt" viewBox="0 0 300.000000 280.000000"
 preserveAspectRatio="xMidYMid meet">
<metadata>
Created by potrace 1.10, written by Peter Selinger 2001-2011
</metadata>
<g transform="translate(0.000000,280.000000) scale(0.100000,-0.100000)"
fill="#ff0000" stroke="none">
<path d="M1445 2649 c-58 -50 -330 -302 -580 -537 -439 -414 -674 -769 -741
-1119 -78 -409 190 -849 567 -929 242 -52 520 78 760 353 l63 72 27 -47 c101
-175 310 -340 504 -398 91 -27 260 -25 345 5 186 65 348 225 450 444 49 107
70 202 70 326 0 259 -109 505 -367 826 -85 106 -1003 1047 -1026 1053 -7 1
-39 -21 -72 -49z m165 -252 c51 -131 91 -239 89 -241 -2 -1 -94 -38 -203 -82
-185 -74 -228 -98 -194 -108 7 -2 113 -21 236 -42 l222 -37 0 -69 c0 -37 -2
-68 -5 -68 -3 0 -14 5 -25 12 -30 19 -71 -1 -98 -49 -16 -29 -25 -69 -32 -139
-11 -113 -24 -160 -51 -174 -33 -18 -41 19 -37 169 2 116 1 136 -12 136 -10 0
-14 -8 -13 -23 3 -19 0 -21 -16 -12 -35 18 -68 11 -95 -20 -66 -79 -62 -282 7
-324 24 -15 67 10 87 50 l16 31 17 -24 c10 -13 25 -23 33 -23 23 0 74 55 74
81 0 21 1 21 21 -5 12 -15 30 -26 45 -26 30 0 74 44 74 74 1 19 2 19 21 -6 26
-35 49 -35 88 -2 32 26 61 102 61 157 0 51 -23 24 -41 -48 -15 -64 -43 -105
-70 -105 -24 0 -29 60 -23 241 6 157 5 189 -7 193 -8 3 -104 21 -214 40 -180
30 -197 35 -170 45 205 79 345 138 345 145 0 7 -108 289 -177 463 -9 22 802
-802 888 -902 216 -253 332 -444 395 -650 24 -79 28 -107 28 -230 1 -160 -15
-231 -85 -365 -130 -251 -345 -403 -574 -404 -190 -1 -375 89 -536 262 -41 44
-90 106 -110 139 l-36 59 88 109 c49 61 88 113 89 118 1 20 -88 -10 -418 -142
l-53 -21 -26 26 -26 26 8 286 7 287 28 22 c27 22 60 88 60 121 0 42 -25 99
-56 130 -32 32 -33 35 -19 62 21 41 19 118 -5 157 -49 81 -178 85 -266 9 -34
-30 -37 -35 -21 -41 12 -5 26 0 40 13 31 29 89 52 133 52 28 0 44 -8 70 -34
28 -28 34 -41 34 -78 -1 -70 -18 -91 -79 -93 -59 -2 -74 -12 -69 -46 4 -32 38
-36 87 -11 35 18 39 19 58 3 54 -43 73 -133 39 -185 -29 -46 -60 -58 -156 -64
l-89 -5 12 32 c9 24 17 31 39 31 18 0 28 5 28 15 0 9 -9 15 -22 15 -23 0 -23
0 -20 142 4 152 -7 218 -35 218 -12 0 -13 -5 -8 -22 11 -31 18 -252 11 -302
-5 -32 -13 -45 -36 -58 -30 -17 -40 -51 -19 -64 15 -9 -27 -33 -59 -34 -32 0
-62 34 -62 73 0 40 24 77 51 77 10 0 19 7 19 15 0 27 -46 17 -74 -16 -20 -23
-26 -42 -26 -76 0 -85 80 -130 155 -85 23 14 40 16 70 11 37 -7 75 -5 133 7
l24 5 -4 -134 -3 -135 -65 -20 c-36 -11 -76 -23 -89 -27 l-24 -7 5 106 c4 89
8 112 26 136 12 16 22 34 22 40 0 19 -27 10 -43 -13 -14 -22 -25 -24 -122 -30
-131 -8 -184 -28 -208 -80 -29 -60 -19 -112 27 -149 39 -32 129 -18 165 26 23
27 2 38 -30 15 -17 -11 -47 -23 -68 -26 -32 -4 -41 -1 -59 22 -27 34 -28 61
-3 101 25 40 61 51 179 56 90 4 93 4 88 -16 -3 -12 -6 -60 -6 -109 0 -85 -1
-88 -26 -97 -31 -12 -27 -36 6 -32 23 4 23 3 17 -72 -8 -96 -27 -140 -69 -166
-50 -30 -85 -26 -124 16 -26 27 -35 32 -40 21 -14 -38 46 -87 106 -87 17 0 49
9 70 20 58 30 82 83 88 195 l4 90 73 22 c40 13 79 25 87 28 10 4 12 -21 10
-132 -2 -123 0 -141 17 -170 11 -18 31 -35 44 -38 16 -4 83 17 208 66 101 39
190 76 197 82 30 24 4 -13 -114 -158 -70 -86 -159 -185 -198 -221 -327 -301
-664 -316 -936 -44 -128 128 -202 276 -231 461 -34 217 57 511 243 787 136
202 306 386 666 721 388 361 446 412 453 398 4 -7 48 -119 99 -250z m125 -677
c32 -35 6 -228 -35 -265 -27 -24 -47 -13 -59 32 -20 72 -6 182 30 228 25 30
40 32 64 5z m-271 -86 c19 -18 19 -25 6 -133 -9 -72 -31 -141 -44 -141 -3 0
-12 -3 -20 -6 -23 -9 -46 52 -46 123 0 129 53 209 104 157z m-344 -144 c-8 -5
-22 -10 -30 -10 -13 0 -13 1 0 10 8 5 22 10 30 10 13 0 13 -1 0 -10z m-148
-242 c-7 -7 -12 -8 -12 -2 0 14 12 26 19 19 2 -3 -1 -11 -7 -17z"/>
<path d="M1917 1394 c-4 -4 -7 -33 -7 -63 0 -54 -1 -57 -31 -68 -18 -7 -29
-17 -26 -25 5 -14 10 -14 41 -2 18 7 19 3 13 -105 -7 -120 -32 -201 -62 -201
-29 0 -37 49 -30 176 5 88 4 124 -5 129 -6 4 -13 5 -15 4 -2 -2 -8 -62 -13
-132 -10 -136 -23 -167 -66 -167 -20 0 -21 4 -18 82 4 103 -16 151 -63 156
-23 3 -35 -3 -55 -26 l-25 -30 4 79 c2 64 0 79 -11 79 -12 0 -16 -38 -25 -202
-10 -217 -22 -268 -63 -268 -29 0 -34 35 -27 182 5 109 4 128 -8 128 -10 0
-15 -10 -15 -27 0 -21 -3 -24 -12 -15 -21 21 -72 14 -97 -12 -65 -69 -69 -281
-6 -322 20 -13 28 -14 52 -2 15 7 35 27 44 44 15 30 16 31 28 12 19 -31 70
-21 98 21 13 19 23 29 23 23 0 -6 9 -16 20 -22 30 -16 81 10 105 53 16 31 25
37 52 37 19 0 41 8 52 19 18 18 19 18 30 -6 17 -36 68 -29 97 14 19 28 24 31
34 18 29 -34 96 -4 120 54 l12 31 25 -20 c48 -38 143 -14 170 42 33 68 22 116
-40 176 -43 42 -44 44 -33 83 11 44 2 71 -28 77 -41 8 -63 -61 -32 -104 10
-13 11 -23 4 -31 -6 -7 -7 -21 -3 -30 6 -17 7 -17 21 2 15 19 17 19 55 -24 32
-36 39 -51 39 -86 0 -36 -5 -48 -31 -69 -71 -60 -159 -2 -123 82 16 39 55 44
78 10 11 -15 19 -19 26 -12 28 28 -39 81 -82 65 -38 -14 -57 -44 -69 -107 -6
-32 -17 -71 -25 -86 -16 -32 -52 -46 -65 -27 -5 8 -9 71 -9 141 l0 126 35 12
c19 6 35 15 35 20 0 16 -18 20 -44 10 l-26 -10 2 57 c3 52 -7 74 -25 57z m243
-54 c0 -16 -4 -30 -10 -30 -5 0 -10 14 -10 30 0 17 5 30 10 30 6 0 10 -13 10
-30z m-503 -220 c15 -29 18 -133 3 -110 -15 24 -25 -18 -12 -53 8 -22 8 -35 0
-51 -31 -61 -72 -74 -89 -29 -10 28 -4 130 12 193 19 77 60 101 86 50z m-266
-76 c10 -13 11 -35 2 -112 -6 -53 -17 -109 -23 -124 -16 -34 -47 -45 -67 -26
-33 33 -25 198 13 255 17 27 56 30 75 7z"/>
<path d="M1791 1316 c-16 -19 -6 -36 20 -36 15 0 20 6 17 22 -4 27 -21 33 -37
14z"/>
<path d="M2128 923 c7 -3 16 -2 19 1 4 3 -2 6 -13 5 -11 0 -14 -3 -6 -6z"/>
</g>
</svg>
